<svg width="100" height="75" viewBox="-50 0 85 90" fill="none" xmlns="http://www.w3.org/2000/svg">
<g transform="rotate(120, 18, 28) translate(30, 19) scale(1,-1) translate(-30, -19)">
  <path d="M32 18C32 22 33 30.5 22.5 29C13.616 27.7309 20.5 21 22.9065 26.1616C26.5287 33.9305 12.7456 32.9414 4 31.4184" stroke="#776780" stroke-linecap="round"/>
  <path d="M9.4219 28.9254C1.4462 31.4765 3.40523 29.695 7.29983 36.7631" stroke="#776780" stroke-linecap="round"/>
</g>
<g transform="translate(-38, -1) scale(1.3) rotate(-8, 24, 30)">
<path d="M5.00 35.78L5.00 35.78Q4.79 35.70 4.57 35.60Q4.35 35.50 4.16 35.31Q3.97 35.13 3.83 34.79L3.83 34.79Q3.69 34.38 3.65 33.99Q3.60 33.60 3.61 33.08L3.61 33.08Q3.61 32.35 3.71 31.81Q3.82 31.28 4.04 30.72L4.04 30.72Q4.07 30.67 4.15 30.47Q4.23 30.27 4.33 30.03Q4.44 29.79 4.49 29.67L4.49 29.67Q4.60 29.43 4.83 29.03Q5.07 28.63 5.33 28.25L5.33 28.25Q5.74 27.65 6.00 27.30Q6.27 26.95 6.51 26.71Q6.75 26.47 7.05 26.26Q7.35 26.04 7.82 25.72L7.82 25.72Q8.13 25.49 8.50 25.48Q8.87 25.47 9.20 25.64Q9.52 25.82 9.67 26.15L9.67 26.15Q9.83 26.45 9.83 26.86Q9.83 27.27 9.70 27.73Q9.57 28.18 9.35 28.59Q9.13 28.99 8.83 29.26L8.83 29.26Q8.65 29.43 8.50 29.39Q8.36 29.34 8.16 29.16L8.16 29.16Q8.03 28.92 8.03 28.88Q8.02 28.84 8.08 28.83L8.08 28.83Q8.16 28.73 8.30 28.49Q8.44 28.25 8.58 27.98Q8.72 27.71 8.78 27.54L8.78 27.54Q8.89 26.95 8.93 26.71Q8.97 26.46 8.85 26.33L8.85 26.33Q8.79 26.28 8.69 26.29Q8.58 26.31 8.34 26.43L8.34 26.43Q8.02 26.57 7.50 27.05Q6.98 27.54 6.55 28.13L6.55 28.13Q5.99 28.87 5.61 29.44Q5.23 30.02 5.04 30.62L5.04 30.62Q5.01 30.67 4.95 30.83Q4.88 30.98 4.88 30.98L4.88 30.98Q4.90 31.04 4.84 31.25Q4.79 31.47 4.72 31.63L4.72 31.63Q4.56 32.27 4.53 32.96Q4.51 33.66 4.61 34.19Q4.72 34.72 4.93 34.93L4.93 34.93Q5.11 35.06 5.42 35.01Q5.74 34.97 6.14 34.82Q6.55 34.66 6.97 34.48L6.97 34.48Q7.31 34.34 7.59 34.17Q7.87 34.01 8.01 33.88L8.01 33.88Q8.12 33.80 8.29 33.71Q8.47 33.61 8.59 33.61L8.59 33.61Q8.79 33.54 8.82 33.56Q8.85 33.57 8.85 33.68L8.85 33.68Q8.85 33.88 8.63 34.12Q8.41 34.36 8.08 34.55L8.08 34.55Q7.96 34.66 7.78 34.79Q7.60 34.92 7.40 34.99L7.40 34.99Q7.11 35.21 6.68 35.42Q6.24 35.63 5.80 35.74Q5.36 35.85 5.00 35.78ZM10.50 35L10.50 35Q10.23 35.07 10.07 34.89Q9.91 34.71 9.88 34.33Q9.85 33.95 9.97 33.43L9.97 33.43Q10.04 33.26 10.08 33.10Q10.12 32.94 10.12 32.84L10.12 32.84Q10.15 32.70 10.23 32.43Q10.32 32.16 10.41 31.86Q10.51 31.57 10.60 31.34Q10.69 31.11 10.72 31.05L10.72 31.05Q10.78 31.05 10.82 30.95Q10.86 30.86 10.86 30.76L10.86 30.76Q10.86 30.65 10.91 30.51Q10.96 30.37 11.02 30.31L11.02 30.31Q11.02 30.24 11.05 30.15Q11.09 30.06 11.09 30.00L11.09 30.00Q11.09 29.95 11.12 29.89Q11.16 29.83 11.16 29.78L11.16 29.78Q11.25 29.60 11.42 29.20Q11.58 28.80 11.77 28.31Q11.95 27.82 12.12 27.34Q12.29 26.87 12.40 26.54Q12.50 26.21 12.50 26.14L12.50 26.14Q12.50 26.03 12.56 25.97Q12.61 25.91 12.72 25.91L12.72 25.91Q12.77 25.87 12.83 25.86Q12.89 25.84 12.95 25.84L12.95 25.84Q12.95 25.84 13.00 25.90Q13.06 25.96 13.17 26.07L13.17 26.07Q13.28 26.17 13.30 26.29Q13.33 26.42 13.33 26.59L13.33 26.59Q13.33 26.77 13.28 26.91Q13.24 27.05 13.12 27.31Q12.99 27.58 12.72 28.14L12.72 28.14Q12.61 28.42 12.49 28.67Q12.36 28.91 12.36 28.97L12.36 28.97Q12.36 29.02 12.31 29.13Q12.26 29.25 12.21 29.41L12.21 29.41Q12.15 29.53 12.05 29.74Q11.95 29.96 11.85 30.21Q11.74 30.45 11.67 30.63Q11.60 30.80 11.60 30.83L11.60 30.83Q11.60 30.88 11.60 30.94Q11.59 31.00 11.53 31.05L11.53 31.05Q11.48 31.05 11.47 31.13Q11.46 31.21 11.46 31.21L11.46 31.21Q11.46 31.35 11.24 31.95L11.24 31.95Q11.02 32.72 10.83 33.36Q10.64 34.01 10.64 34.40L10.64 34.40Q10.64 34.73 10.62 34.84Q10.61 34.94 10.50 35ZM12.60 34.55L12.60 34.55Q12.49 34.44 12.44 34.27Q12.39 34.10 12.40 33.94Q12.42 33.77 12.47 33.66L12.47 33.66Q12.47 33.54 12.51 33.48Q12.54 33.42 12.53 33.36L12.53 33.36Q12.51 33.31 12.56 33.17Q12.60 33.03 12.64 32.90L12.64 32.90Q12.74 32.68 12.85 32.36Q12.96 32.05 13.06 31.74Q13.16 31.43 13.23 31.21Q13.30 30.98 13.31 30.93L13.31 30.93Q13.31 30.76 13.54 30.74L13.54 30.74Q13.70 30.69 13.79 30.74Q13.87 30.79 14.01 31.01L14.01 31.01Q14.12 31.12 14.10 31.35Q14.07 31.57 13.91 31.91L13.91 31.91Q13.86 32.02 13.78 32.23Q13.70 32.44 13.68 32.61L13.68 32.61Q13.62 32.72 13.54 32.92Q13.47 33.12 13.41 33.31L13.41 33.31Q13.38 33.38 13.35 33.51Q13.33 33.64 13.28 33.79Q13.24 33.94 13.17 34.05L13.17 34.05Q13.05 34.62 12.94 34.72Q12.84 34.82 12.60 34.55ZM13.96 28.87L13.96 28.87Q13.89 28.80 13.83 28.67Q13.77 28.53 13.76 28.41Q13.75 28.29 13.79 28.29L13.79 28.29Q13.90 28.28 14.05 28.06Q14.21 27.83 14.18 27.66L14.18 27.66Q14.18 27.61 14.22 27.56Q14.26 27.51 14.32 27.50L14.32 27.50Q14.49 27.38 14.65 27.46Q14.81 27.54 14.95 27.76L14.95 27.76Q15.08 28.03 15.02 28.20Q14.96 28.38 14.71 28.69L14.71 28.69Q14.50 28.97 14.33 28.99Q14.15 29.02 13.96 28.87ZM16.59 34.85L16.59 34.85Q16.18 34.92 15.85 34.80Q15.51 34.68 15.31 34.39Q15.10 34.10 15.10 33.66L15.10 33.66Q15.06 33.24 15.20 32.68Q15.34 32.13 15.62 31.57Q15.89 31.01 16.21 30.60L16.21 30.60Q16.49 30.27 16.77 29.99Q17.05 29.71 17.27 29.61L17.27 29.61Q17.47 29.53 17.64 29.50Q17.82 29.48 17.93 29.48L17.93 29.48Q18.16 29.54 18.41 29.69Q18.67 29.83 18.67 30.00L18.67 30.00Q18.67 30.00 18.71 30.04Q18.74 30.07 18.74 30.07L18.74 30.07Q18.83 30.07 18.89 30.25Q18.95 30.44 18.97 30.67Q18.98 30.90 18.90 31.05L18.90 31.05Q18.84 31.32 18.70 31.51Q18.56 31.71 18.45 31.71L18.45 31.71Q18.39 31.71 18.34 31.72Q18.30 31.72 18.30 31.79L18.30 31.79Q18.30 31.86 18.22 31.85Q18.14 31.84 18.06 31.76Q17.97 31.68 17.93 31.57L17.93 31.57Q17.93 31.50 17.99 31.33Q18.04 31.16 18.10 30.90L18.10 30.90Q18.18 30.51 18.09 30.39Q17.99 30.27 17.71 30.38L17.71 30.38Q17.36 30.58 17.04 30.93Q16.73 31.28 16.46 31.83Q16.20 32.38 15.99 33.21L15.99 33.21Q15.90 33.53 15.92 33.77Q15.94 34.01 15.99 34.02L15.99 34.02Q16.18 34.08 16.52 34.04Q16.85 34.01 17.01 33.92L17.01 33.92Q17.23 33.81 17.51 33.62Q17.79 33.43 18.00 33.28L18.00 33.28Q18.07 33.24 18.17 33.14Q18.27 33.04 18.38 32.98L18.38 32.98Q18.49 32.82 18.58 32.79Q18.66 32.76 18.83 32.76L18.83 32.76Q18.94 32.79 19.04 32.84Q19.14 32.90 19.17 32.96Q19.21 33.01 19.12 33.05L19.12 33.05Q19.07 33.05 19.06 33.09Q19.05 33.12 19.05 33.12L19.05 33.12Q19.08 33.18 18.93 33.36Q18.79 33.53 18.56 33.74Q18.34 33.95 18.14 34.10Q17.93 34.24 17.85 34.24L17.85 34.24Q17.71 34.24 17.71 34.33L17.71 34.33Q17.71 34.36 17.51 34.47Q17.30 34.58 17.04 34.69Q16.78 34.80 16.59 34.85ZM20.20 34.93L20.20 34.93Q20.09 34.89 19.96 34.76Q19.84 34.62 19.75 34.44Q19.67 34.26 19.67 34.10L19.67 34.10Q19.74 33.95 19.85 33.56Q19.96 33.18 20.13 32.68L20.13 32.68Q20.24 32.52 20.30 32.31Q20.37 32.10 20.42 31.93L20.42 31.93Q20.54 31.71 20.69 31.35Q20.84 31.00 20.99 30.63Q21.14 30.25 21.25 30.00L21.25 30.00Q21.43 29.62 21.57 29.31Q21.70 28.99 21.83 28.67Q21.96 28.35 22.12 27.97L22.12 27.97Q22.29 27.58 22.46 27.17Q22.64 26.77 22.77 26.44Q22.90 26.11 22.93 25.97L22.93 25.97Q22.93 25.86 22.98 25.80Q23.03 25.75 23.08 25.75L23.08 25.75Q23.14 25.69 23.20 25.68Q23.25 25.68 23.31 25.68L23.31 25.68Q23.36 25.68 23.53 25.89Q23.69 26.10 23.69 26.26L23.69 26.26Q23.69 26.49 23.47 27.10Q23.25 27.72 22.86 28.50L22.86 28.50Q22.38 29.54 22.09 30.21Q21.80 30.87 21.68 31.20Q21.57 31.53 21.60 31.57L21.60 31.57Q21.60 31.57 21.80 31.48Q21.99 31.39 22.22 31.22L22.22 31.22Q22.37 31.14 22.55 31.01Q22.73 30.88 22.90 30.77Q23.07 30.65 23.18 30.62L23.18 30.62Q23.35 30.51 23.53 30.40Q23.71 30.30 23.77 30.24L23.77 30.24Q24.01 30.13 24.13 30.17Q24.25 30.21 24.37 30.38L24.37 30.38Q24.53 30.56 24.43 30.70Q24.33 30.83 23.97 31.05L23.97 31.05Q23.67 31.23 23.26 31.49Q22.85 31.74 22.53 31.93Q22.22 32.13 22.17 32.17L22.17 32.17Q22.17 32.17 22.29 32.38Q22.40 32.59 22.51 32.76L22.51 32.76Q22.62 32.98 22.76 33.17Q22.89 33.36 22.89 33.43L22.89 33.43Q23.04 33.87 23.35 34.06Q23.66 34.26 23.99 34.10L23.99 34.10Q24.27 33.99 24.41 34.03Q24.54 34.08 24.60 34.24L24.60 34.24Q24.65 34.36 24.63 34.40Q24.61 34.45 24.44 34.62L24.44 34.62Q24.18 34.89 23.90 34.96Q23.63 35.03 23.41 34.92L23.41 34.92Q23.20 34.93 22.89 34.64Q22.58 34.36 22.01 33.61L22.01 33.61Q22.01 33.56 21.96 33.45Q21.91 33.35 21.85 33.25L21.85 33.25Q21.80 33.14 21.71 33.00Q21.63 32.87 21.63 32.87L21.63 32.87Q21.63 32.82 21.59 32.75Q21.54 32.68 21.47 32.58L21.47 32.58Q21.25 32.51 21.15 32.66Q21.05 32.82 20.94 32.98L20.94 32.98Q20.87 33.17 20.77 33.49Q20.66 33.82 20.60 34.13Q20.54 34.44 20.56 34.55L20.56 34.55Q20.56 34.78 20.49 34.85Q20.42 34.93 20.20 34.93ZM34.84 34.41L34.84 34.41Q34.77 34.38 34.63 34.27Q34.49 34.16 34.40 33.89Q34.30 33.61 34.30 33.12L34.30 33.12Q34.31 32.70 34.32 32.47Q34.33 32.23 34.21 32.23L34.21 32.23Q34.10 32.23 33.79 32.45Q33.47 32.66 33.07 33.03Q32.66 33.39 32.24 33.84L32.24 33.84Q32.10 33.99 31.97 34.13Q31.83 34.26 31.71 34.29Q31.58 34.33 31.41 34.20L31.41 34.20L31.26 34.08Q31.19 34.01 31.18 33.93Q31.16 33.85 31.19 33.75L31.19 33.75L31.51 32.83Q31.74 32.33 31.82 32.09Q31.90 31.86 31.90 31.80Q31.90 31.74 31.86 31.75L31.86 31.75Q31.75 31.77 31.53 31.88Q31.30 32.00 31.23 32.12L31.23 32.12Q31.18 32.12 31.06 32.24Q30.95 32.37 30.78 32.48L30.78 32.48Q30.69 32.65 30.40 32.91Q30.11 33.18 29.83 33.46L29.83 33.46Q29.65 33.61 29.48 33.84Q29.30 34.06 29.18 34.23Q29.06 34.40 29.02 34.40L29.02 34.40Q28.84 34.40 28.69 34.30Q28.54 34.20 28.47 33.98L28.47 33.98Q28.36 33.74 28.47 33.31Q28.59 32.89 28.73 32.20L28.73 32.20Q28.78 31.99 28.80 31.89Q28.81 31.79 28.85 31.69Q28.88 31.58 28.97 31.36Q29.06 31.14 29.26 30.69L29.26 30.69Q29.36 30.42 29.38 30.29Q29.40 30.16 29.40 30.10L29.40 30.10Q29.40 29.96 29.48 29.86Q29.55 29.76 29.66 29.72Q29.78 29.68 29.87 29.71L29.87 29.71Q30.03 29.74 30.15 29.86Q30.27 29.99 30.28 30.21L30.28 30.21Q30.29 30.38 30.25 30.51Q30.21 30.65 30.17 30.76L30.17 30.76L30.01 31.14Q29.94 31.29 29.83 31.58Q29.72 31.88 29.64 32.12Q29.55 32.37 29.55 32.41L29.55 32.41Q29.57 32.45 29.65 32.39Q29.73 32.33 29.87 32.21Q30.00 32.09 30.14 31.98L30.14 31.98Q30.43 31.70 30.81 31.44Q31.18 31.18 31.51 31.00Q31.85 30.81 32.03 30.76L32.03 30.76Q32.27 30.76 32.36 30.84Q32.45 30.93 32.67 31.15L32.67 31.15Q32.77 31.25 32.79 31.40Q32.80 31.56 32.77 31.70L32.77 31.70Q32.76 31.75 32.69 31.97Q32.62 32.19 32.55 32.38Q32.49 32.58 32.49 32.58L32.49 32.58Q32.49 32.58 32.65 32.44Q32.81 32.30 33.01 32.14Q33.21 31.98 33.30 31.89L33.30 31.89Q33.85 31.47 34.26 31.36Q34.66 31.25 34.91 31.65L34.91 31.65Q35.08 31.81 35.09 31.99Q35.10 32.17 35.10 32.62L35.10 32.62Q35.11 32.80 35.12 33.05Q35.14 33.31 35.16 33.51Q35.18 33.71 35.21 33.75L35.21 33.75Q35.25 33.81 35.37 33.85Q35.49 33.88 35.68 33.91L35.68 33.91Q35.89 33.94 35.94 34.09Q35.98 34.24 35.75 34.38L35.75 34.38Q35.54 34.51 35.29 34.50Q35.04 34.48 34.84 34.41ZM38.83 34.51L38.83 34.51Q38.54 34.76 38.16 34.80Q37.77 34.85 37.41 34.69Q37.04 34.52 36.80 34.19L36.80 34.19Q36.57 33.88 36.50 33.48Q36.43 33.08 36.48 32.44L36.48 32.44Q36.52 31.89 36.83 31.34Q37.14 30.79 37.58 30.35Q38.02 29.92 38.46 29.75L38.46 29.75Q38.67 29.61 38.81 29.62Q38.96 29.62 39.27 29.65L39.27 29.65Q39.59 29.69 39.75 29.78Q39.91 29.86 40.01 30.00L40.01 30.00Q40.22 30.21 40.29 30.41Q40.36 30.62 40.36 30.81L40.36 30.81Q40.30 31.12 39.95 31.56Q39.59 32.00 39.02 32.28L39.02 32.28Q38.71 32.38 38.34 32.37Q37.98 32.35 37.74 32.19L37.74 32.19Q37.48 32.07 37.39 32.22Q37.31 32.37 37.24 32.93L37.24 32.93Q37.18 33.46 37.32 33.71Q37.46 33.95 37.70 33.99L37.70 33.99Q37.98 34.05 38.14 34.07Q38.30 34.09 38.54 33.95L38.54 33.95Q38.76 33.81 38.82 33.79Q38.88 33.77 38.91 33.73Q38.95 33.70 39.09 33.56L39.09 33.56Q39.18 33.46 39.24 33.41Q39.30 33.36 39.37 33.36L39.37 33.36Q39.44 33.36 39.49 33.43Q39.55 33.49 39.60 33.52L39.60 33.52Q39.74 33.52 39.67 33.68Q39.59 33.85 39.37 34.08Q39.14 34.31 38.83 34.51ZM38.82 31.54L38.82 31.54Q38.97 31.47 39.14 31.34Q39.31 31.21 39.43 31.04Q39.55 30.88 39.55 30.77L39.55 30.77Q39.55 30.58 39.37 30.44Q39.18 30.31 38.82 30.41L38.82 30.41Q38.67 30.45 38.47 30.61Q38.27 30.77 38.10 30.97Q37.92 31.16 37.82 31.32Q37.71 31.47 37.74 31.50L37.74 31.50Q37.78 31.57 37.98 31.61Q38.18 31.64 38.42 31.63Q38.67 31.61 38.82 31.54ZM42.28 32.62L42.28 32.62Q41.89 32.69 41.76 32.24Q41.63 31.79 41.83 31.01L41.83 31.01Q41.91 30.84 41.97 30.68Q42.03 30.52 42.03 30.42L42.03 30.42Q42.08 30.24 42.17 30.00Q42.26 29.75 42.36 29.53Q42.46 29.32 42.50 29.25L42.50 29.25Q42.56 29.25 42.62 29.15Q42.68 29.05 42.68 28.95L42.68 28.95Q42.68 28.84 42.73 28.70Q42.78 28.56 42.84 28.50L42.84 28.50Q42.84 28.43 42.89 28.35Q42.95 28.27 42.95 28.21L42.95 28.21Q42.95 28.15 42.98 28.11Q43.02 28.07 43.02 28.01L43.02 28.01Q43.15 27.79 43.35 27.35Q43.55 26.91 43.75 26.42Q43.96 25.93 44.10 25.55Q44.24 25.17 44.24 25.09L44.24 25.09Q44.27 24.98 44.32 24.92Q44.38 24.86 44.49 24.89L44.49 24.89Q44.55 24.85 44.60 24.84Q44.66 24.84 44.71 24.84L44.71 24.84Q44.71 24.84 44.76 24.89Q44.81 24.95 44.91 25.06L44.91 25.06Q45.02 25.16 45.04 25.28Q45.05 25.41 45.05 25.58L45.05 25.58Q45.04 25.84 44.85 26.18Q44.67 26.52 44.45 26.92L44.45 26.92Q44.31 27.19 44.17 27.43Q44.04 27.66 44.04 27.72L44.04 27.72Q44.04 27.78 43.99 27.89Q43.93 28 43.86 28.17L43.86 28.17Q43.78 28.31 43.68 28.50Q43.58 28.70 43.50 28.86Q43.43 29.02 43.43 29.06L43.43 29.06Q43.41 29.12 43.39 29.18Q43.37 29.23 43.31 29.29L43.31 29.29Q43.26 29.29 43.25 29.37Q43.24 29.44 43.24 29.44L43.24 29.44Q43.24 29.50 43.18 29.70Q43.12 29.90 42.98 30.18L42.98 30.18Q42.71 30.93 42.60 31.37Q42.49 31.81 42.46 32.12L42.46 32.12Q42.43 32.45 42.41 32.51Q42.39 32.56 42.28 32.62ZM41.52 34.86L41.52 34.86Q41.26 34.96 41.08 34.95Q40.91 34.94 40.70 34.79L40.70 34.79Q40.43 34.54 40.52 34.28Q40.61 34.02 40.98 33.77L40.98 33.77Q41.23 33.61 41.35 33.60Q41.47 33.59 41.72 33.70L41.72 33.70Q42.14 33.96 42.09 34.29Q42.04 34.61 41.52 34.86Z" fill="#776780"/>
</g>
</svg>
